<?xml version="1.0" encoding="UTF-8"?>
<svg id="Layer_2" data-name="Layer 2" xmlns="http://www.w3.org/2000/svg" viewBox="0 0 1405.44 670.5">
  <g id="Layer_1-2" data-name="Layer 1">
    <g>
      <g>
        <path d="M0,575.92h32.13c13.35,0,23.52,4.03,30.51,12.1,6.98,8.07,10.47,19.47,10.47,34.21s-3.67,26.15-10.99,34.21c-7.33,8.07-18.06,12.1-32.2,12.1H0v-92.62ZM7.8,661.65h21.86c23.59,0,35.38-13.14,35.38-39.42s-11.45-39.42-34.34-39.42H7.8v78.84Z"/>
        <path d="M132.78,623.92v37.73h57.37v6.89h-65.17v-92.62h63.48v6.89h-55.68v34.21h51.65v6.9h-51.65Z"/>
        <path d="M279.22,646.82l26.15-70.9h8.33l-35,92.88h-8.85l-35.12-92.88h8.72l26.28,70.9,4.68,13.66,4.81-13.66Z"/>
        <path d="M369.46,623.92v37.73h57.37v6.89h-65.17v-92.62h63.48v6.89h-55.68v34.21h51.65v6.9h-51.65Z"/>
        <path d="M487.15,575.92v85.73h51.78v6.89h-59.58v-92.62h7.81Z"/>
        <path d="M616.94,670.5c-12.84,0-23.24-4.51-31.22-13.53-7.98-9.02-11.97-20.6-11.97-34.73s3.99-25.58,11.97-34.6c7.89-8.93,18.3-13.4,31.22-13.4s23.59,4.47,31.48,13.4c7.89,8.93,11.84,20.47,11.84,34.6s-3.95,25.8-11.84,34.73c-7.98,9.02-18.47,13.53-31.48,13.53ZM616.94,663.34c10.67,0,19.21-3.77,25.63-11.32,6.42-7.46,9.63-17.39,9.63-29.79s-3.21-22.2-9.63-29.66c-6.5-7.46-15.05-11.19-25.63-11.19s-19.08,3.73-25.5,11.19c-6.42,7.46-9.63,17.35-9.63,29.66s3.25,22.25,9.76,29.79c6.42,7.54,14.87,11.32,25.37,11.32Z"/>
        <path d="M713.04,575.92h36.95c8.93,0,15.96,2.26,21.08,6.76,5.12,4.51,7.67,10.88,7.67,19.12s-2.6,15.05-7.8,19.64c-5.2,4.6-12.49,6.89-21.86,6.89h-28.23v40.2h-7.8v-92.62ZM720.84,621.45h28.49c6.85,0,12.14-1.69,15.87-5.07,3.73-3.38,5.59-8.24,5.59-14.57s-1.89-10.86-5.66-14.12c-3.77-3.25-8.96-4.88-15.55-4.88h-28.75v38.64Z"/>
        <path d="M876.52,653.19l31.48-77.27h10.8v92.62h-7.29v-71.68l.26-11.45-4.55,11.32-29.53,71.81h-7.42l-34.86-83.26.26,11.58v71.68h-7.16v-92.62h10.93l32.13,77.27,2.47,7.16,2.47-7.16Z"/>
        <path d="M982.5,623.92v37.73h57.37v6.89h-65.17v-92.62h63.48v6.89h-55.68v34.21h51.65v6.9h-51.65Z"/>
        <path d="M1156.26,657.62v-81.7h7.54v92.62h-8.85l-55.16-81.44v81.44h-7.42v-92.62h8.46l55.42,81.7Z"/>
        <path d="M1212.94,575.92h72.59v6.89h-32.39v85.73h-7.94v-85.73h-32.26v-6.89Z"/>
        <path d="M1363.03,670.37c-22.81,0-35.12-10.19-36.95-30.57h7.55c1.39,15.96,11.27,23.94,29.66,23.94,8.76,0,15.46-1.71,20.1-5.14,4.64-3.42,6.96-8.26,6.96-14.5,0-4.94-1.61-8.89-4.81-11.84-3.21-2.95-8.41-5.16-15.61-6.63l-15.61-3.12c-16.65-3.38-24.98-11.19-24.98-23.42,0-7.63,2.86-13.7,8.59-18.21,5.72-4.51,13.61-6.76,23.68-6.76s17.93,2.34,23.87,7.03c5.94,4.68,9.21,11.27,9.82,19.77h-7.54c-.52-6.5-3.08-11.51-7.68-15.03-4.6-3.51-10.84-5.27-18.73-5.27s-13.72,1.58-18.02,4.75c-4.29,3.17-6.44,7.57-6.44,13.2,0,4.34,1.5,7.85,4.49,10.54,2.99,2.69,7.65,4.73,13.99,6.12l17.56,3.51c16.74,3.47,25.11,11.8,25.11,24.98,0,8.15-3.01,14.64-9.04,19.45-6.03,4.81-14.68,7.22-25.95,7.22Z"/>
      </g>
      <g>
        <path d="M132.49,228.6H2.48V3.36h125.33c14.48,0,26.79,2.13,36.93,6.39,10.14,4.26,17.93,10.54,23.39,18.83,5.46,8.29,8.19,18.38,8.19,30.26,0,13.23-3.84,24.43-11.53,33.62-7.69,9.19-20.11,14.79-37.26,16.81v2.35c19.16,2.24,33.42,8.24,42.78,17.99s14.04,22.02,14.04,36.81c0,12.78-2.79,23.87-8.36,33.28-5.57,9.41-13.7,16.59-24.4,21.52-10.69,4.93-23.73,7.4-39.1,7.4ZM38.24,35.97v61.86h84.56c12.7,0,22.17-2.52,28.41-7.56,6.24-5.04,9.36-12.83,9.36-23.36s-3.01-18.32-9.02-23.36c-6.02-5.04-15.26-7.56-27.74-7.56H38.24ZM38.24,127.75v68.24h90.24c13.37,0,23.34-2.74,29.91-8.24,6.57-5.49,9.86-14.29,9.86-26.39s-3.29-20.45-9.86-25.72c-6.57-5.26-16.54-7.9-29.91-7.9H38.24Z"/>
        <path d="M263.83,228.6h-36.1V3.36h36.1v225.24Z"/>
        <path d="M333.34,228.6h-36.09V3.36h116.3c16.93,0,31.58,2.58,43.95,7.73,12.37,5.16,21.83,12.66,28.41,22.52,6.57,9.86,9.86,21.85,9.86,35.97,0,12.55-2.62,23.31-7.85,32.27-5.24,8.97-12.82,16.03-22.73,21.18-9.92,5.16-21.89,8.18-35.93,9.08v2.35c8.69,2.24,15.43,5.88,20.22,10.93,4.79,5.04,9.19,11.15,13.2,18.32l37.43,64.88h-41.44l-35.76-62.19c-3.34-6.05-6.97-10.92-10.86-14.62-3.9-3.7-8.75-6.39-14.54-8.07-5.8-1.68-13.48-2.52-23.06-2.52h-41.11v87.41ZM333.34,35.97v77.32h79.88c14.92,0,26.18-2.91,33.76-8.74,7.57-5.83,11.36-15.8,11.36-29.92s-3.79-23.53-11.36-29.58c-7.58-6.05-18.83-9.08-33.76-9.08h-79.88Z"/>
        <path d="M630.79,231.96c-23.18,0-43.45-4.76-60.83-14.29-17.38-9.52-30.86-22.97-40.44-40.34-9.58-17.37-14.37-37.82-14.37-61.35s4.79-43.98,14.37-61.35c9.58-17.37,23.06-30.81,40.44-40.34,17.38-9.52,37.65-14.29,60.83-14.29,21.16,0,39.82,3.53,55.98,10.59,16.15,7.06,28.74,17.15,37.77,30.26,9.02,13.11,13.54,28.74,13.54,46.9v4.37h-39.77v-4.37c0-17.25-5.51-30.37-16.54-39.33-11.03-8.96-27.91-13.45-50.63-13.45-17.6,0-32.14,2.86-43.62,8.57-11.48,5.71-20.05,14.51-25.73,26.39-5.68,11.88-8.52,27.23-8.52,46.06s2.84,33.9,8.52,45.89c5.68,11.99,14.26,20.84,25.73,26.56,11.47,5.71,26.01,8.57,43.62,8.57,22.73,0,39.6-4.48,50.63-13.45,11.03-8.96,16.54-22.07,16.54-39.33v-4.37h39.77v4.37c0,17.93-4.51,33.51-13.54,46.73-9.02,13.23-21.61,23.36-37.77,30.42-16.16,7.06-34.82,10.59-55.98,10.59Z"/>
        <path d="M800.9,228.6h-36.1V3.36h36.1v225.24ZM950.29,131.44h-173.79v-32.61h173.79v32.61ZM968.33,228.6h-35.76V3.36h35.76v225.24Z"/>
        <path d="M394.13,498.27c-22.06,0-40.61-3.14-55.65-9.41-15.04-6.27-26.35-15.18-33.92-26.73-7.58-11.54-11.36-25.15-11.36-40.84v-2.02h36.09v5.38c0,8.97,2.01,16.42,6.02,22.36,4.01,5.94,10.7,10.42,20.05,13.45s22.28,4.54,38.77,4.54c14.26,0,25.62-1.06,34.09-3.19,8.46-2.13,14.54-5.49,18.21-10.08,3.68-4.59,5.51-10.36,5.51-17.31,0-9.86-3.12-17.03-9.36-21.52-6.24-4.48-16.38-8.07-30.41-10.76l-54.81-9.08c-12.48-2.46-23.62-6.1-33.42-10.93-9.81-4.82-17.44-11.31-22.89-19.5-5.46-8.18-8.19-18.43-8.19-30.76,0-8.07,1.78-16.02,5.35-23.87,3.56-7.84,9.13-14.9,16.71-21.18,7.57-6.27,17.43-11.26,29.58-14.96,12.14-3.7,27.01-5.55,44.62-5.55,21.83,0,39.77,3.36,53.81,10.08,14.04,6.72,24.45,15.86,31.25,27.4,6.79,11.54,10.19,24.71,10.19,39.5v2.02h-35.76v-4.37c0-9.19-2-16.86-6.02-23.03-4.01-6.16-10.58-10.76-19.72-13.78-9.14-3.03-21.5-4.54-37.1-4.54-13.59,0-24.56,1.12-32.92,3.36-8.36,2.24-14.43,5.55-18.21,9.92-3.79,4.37-5.68,10.03-5.68,16.98,0,6.28,1.34,11.43,4.01,15.46,2.67,4.03,6.79,7.23,12.37,9.58,5.57,2.35,12.7,4.54,21.39,6.56l54.48,9.41c14.92,2.69,27.35,6.72,37.26,12.1,9.91,5.38,17.32,12.22,22.23,20.51,4.9,8.29,7.35,17.93,7.35,28.91s-3.23,22.19-9.69,32.27c-6.46,10.09-16.6,18.21-30.41,24.37-13.82,6.16-31.75,9.24-53.81,9.24Z"/>
        <path d="M712.96,302.28h-211.89v-32.61h211.89v32.61ZM625.06,494.91h-35.76v-225.24h35.76v225.24Z"/>
        <path d="M843.97,498.27c-23.39,0-43.84-4.76-61.33-14.29-17.49-9.52-31.08-22.97-40.77-40.34-9.69-17.37-14.54-37.82-14.54-61.35s4.85-43.98,14.54-61.35c9.69-17.37,23.28-30.81,40.77-40.34,17.49-9.52,37.93-14.29,61.33-14.29s44.45,4.76,61.83,14.29c17.38,9.53,30.91,22.98,40.61,40.34,9.69,17.37,14.54,37.82,14.54,61.35s-4.85,43.99-14.54,61.35c-9.69,17.37-23.23,30.82-40.61,40.34-17.38,9.53-37.99,14.29-61.83,14.29ZM843.97,463.31c17.6,0,32.25-2.86,43.95-8.57s20.44-14.57,26.23-26.56c5.79-11.99,8.69-27.28,8.69-45.89s-2.9-34.17-8.69-46.06c-5.8-11.88-14.54-20.67-26.23-26.39s-26.35-8.57-43.95-8.57-32.25,2.86-43.95,8.57c-11.7,5.71-20.39,14.51-26.07,26.39-5.68,11.88-8.52,27.23-8.52,46.06s2.84,33.9,8.52,45.89c5.68,11.99,14.37,20.84,26.07,26.56,11.7,5.71,26.35,8.57,43.95,8.57Z"/>
        <path d="M1023.77,494.91h-36.09v-225.24h38.77l100.26,131.78,29.08,42.02h2.67l-1.67-40.68v-133.12h36.09v225.24h-38.77l-100.93-131.44-28.07-39.67h-2.67l1.34,39v132.12Z"/>
        <path d="M1262.39,494.91h-36.09v-225.24h36.09v225.24ZM1405.44,302.28h-168.11v-32.61h168.11v32.61ZM1400.42,397.75h-163.09v-32.27h163.09v32.27ZM1405.44,494.91h-168.11v-32.61h168.11v32.61Z"/>
      </g>
      <path d="M205.86,299.07c3.17-.2,6.25-.16,9.25.1,2.99.27,6.34,1.07,10.05,2.43,3.7,1.36,6.94,3.25,9.71,5.69,2.76,2.44,5.28,5.96,7.54,10.55,2.26,4.59,3.74,10,4.46,16.24,1.36,12.92-.85,24.13-6.63,33.65-5.78,9.52-14.81,16.75-27.08,21.7-3.6,1.46-12.42,3.47-26.46,6.05l-1.47.14.78,1.25c6.12,8.7,9.5,18.88,10.13,30.54.64,11.66-1.57,23.21-6.62,34.65-6.31,14.32-15.98,26.01-29.01,35.07-13.03,9.06-27.88,14.39-44.54,16.01h-1.81c-13.42,1.09-25.91.09-37.48-2.99-11.57-3.08-21.25-7.67-29.04-13.78-7.79-6.1-14.15-12.95-19.06-20.55-4.92-7.59-8.27-15.62-10.08-24.07-1.24-5.96-1.66-12.06-1.28-18.29.38-6.23,1.79-12.72,4.21-19.48,2.42-6.76,5.88-13.12,10.35-19.08,4.48-5.96,10.58-11.67,18.3-17.12,7.72-5.45,16.62-9.99,26.71-13.62l1.91-.68-1.91-.98c-8.23-4.4-14.82-10.04-19.78-16.91-4.95-6.87-7.88-14.36-8.77-22.45l-.03-.33c-1.54-14.78,3.44-28.06,14.94-39.85,11.5-11.78,26.12-18.64,43.85-20.59l.65-.06c14.81-1.43,28.41,1.09,40.8,7.57,12.39,6.49,21.02,15.52,25.88,27.1l-22.92,15.32c-3.01-12.87-9.11-23.67-18.31-32.4-9.2-8.73-18.96-12.98-29.27-12.76-9.43.25-17.12,4.04-23.06,11.36-5.94,7.32-8.91,16.68-8.91,28.07-.05,30.08,15.29,48.34,46.04,54.76l-.14,3.66c-9.71.83-18.42,2.51-26.15,5.02-7.73,2.52-14.08,5.62-19.05,9.31-4.98,3.69-8.99,7.37-12.04,11.04-3.05,3.67-5.53,7.59-7.44,11.75-4.73,10.19-6.33,21.46-4.81,33.8,1.53,12.35,5.99,23.8,13.39,34.37,7.15,10.25,15.9,17.98,26.24,23.17,10.34,5.19,21.13,7.3,32.36,6.32l.65-.06c23.96-2.32,40.19-13.51,48.69-33.58,4.81-12.74,6.32-25.55,4.52-38.42-1.8-12.87-5.83-23.32-12.11-31.34l-.52-.28-.49.05c-.55.05-2.62.2-6.22.44-3.61.24-6.44.46-8.51.66-20.61,1.78-33.75,6.26-39.43,13.44-2.85,3.48-3.99,7.63-3.41,12.44.7,6.13,4.15,11.65,10.35,16.58l-12.42,14.81c-2.35-2.65-4.44-5.87-6.3-9.67s-3.29-8.47-4.33-14.01c-1.03-5.54-.42-10.91,1.82-16.1,7.57-19.42,33.14-31.24,76.71-35.46l2.61-.25c16.88-1.64,30.98-4.71,42.31-9.24,11.32-4.52,18.86-10.12,22.62-16.79,3.55-6.42,3.49-13.33-.19-20.72-2.33-4.75-6.45-8.44-12.37-11.08-5.92-2.63-13.22-3.97-21.91-4.01l3.52-18.09Z"/>
    </g>
  </g>
</svg>